<svg xmlns="http://www.w3.org/2000/svg" width="960" height="400" viewBox="0 0 960 400" role="img">
<style>text{font-family:-apple-system,BlinkMacSystemFont,'Segoe UI',sans-serif;fill:#334155}.muted{fill:#64748b;font-size:12px}.value{fill:#0f172a;font-size:28px;font-weight:700}.title{fill:#0f172a;font-size:16px;font-weight:700}</style>
<rect width="100%" height="100%" fill="#ffffff"/>
<text x="64" y="36" class="title">已存档文章总量变化</text><line x1="64" y1="346.0" x2="928" y2="346.0" stroke="#e2e8f0"/><text x="54" y="350.0" text-anchor="end" class="muted">148,743</text><line x1="64" y1="277.5" x2="928" y2="277.5" stroke="#e2e8f0"/><text x="54" y="281.5" text-anchor="end" class="muted">151,400</text><line x1="64" y1="209.0" x2="928" y2="209.0" stroke="#e2e8f0"/><text x="54" y="213.0" text-anchor="end" class="muted">154,056</text><line x1="64" y1="140.5" x2="928" y2="140.5" stroke="#e2e8f0"/><text x="54" y="144.5" text-anchor="end" class="muted">156,712</text><line x1="64" y1="72.0" x2="928" y2="72.0" stroke="#e2e8f0"/><text x="54" y="76.0" text-anchor="end" class="muted">159,369</text><text x="64.0" y="380" text-anchor="middle" class="muted">2026-08-17</text><text x="496.0" y="380" text-anchor="middle" class="muted">2026-09-09</text><text x="928.0" y="380" text-anchor="middle" class="muted">2026-10-02</text><polyline fill="none" stroke="#2563eb" stroke-width="3" stroke-linejoin="round" stroke-linecap="round" points="64.0,346.0 82.8,343.5 101.6,333.5 120.3,325.9 139.1,317.3 157.9,309.4 176.7,302.2 195.5,296.1 214.3,289.0 233.0,282.0 251.8,270.0 270.6,262.7 289.4,259.6 308.2,254.7 327.0,250.8 345.7,247.4 364.5,243.1 383.3,239.6 402.1,234.8 420.9,229.6 439.7,222.5 458.4,217.8 477.2,212.5 496.0,207.2 514.8,201.6 533.6,197.1 552.3,192.0 571.1,185.2 589.9,180.3 608.7,175.6 627.5,170.7 646.3,166.7 665.0,161.3 683.8,155.6 702.6,152.4 721.4,147.1 740.2,141.6 759.0,134.3 777.7,127.5 796.5,122.2 815.3,116.6 834.1,109.8 852.9,102.9 871.7,95.9 890.4,86.3 909.2,78.1 928.0,72.0"/><rect x="64" y="48" width="10" height="10" fill="#2563eb" rx="2"/><text x="80" y="58" class="muted">文章</text>
</svg>