<svg xmlns="http://www.w3.org/2000/svg" width="960" height="400" viewBox="0 0 960 400" role="img">
<style>text{font-family:-apple-system,BlinkMacSystemFont,'Segoe UI',sans-serif;fill:#334155}.muted{fill:#64748b;font-size:12px}.value{fill:#0f172a;font-size:28px;font-weight:700}.title{fill:#0f172a;font-size:16px;font-weight:700}</style>
<rect width="100%" height="100%" fill="#ffffff"/>
<text x="64" y="36" class="title">已存档文章总量变化</text><line x1="64" y1="346.0" x2="928" y2="346.0" stroke="#e2e8f0"/><text x="54" y="350.0" text-anchor="end" class="muted">148,743</text><line x1="64" y1="277.5" x2="928" y2="277.5" stroke="#e2e8f0"/><text x="54" y="281.5" text-anchor="end" class="muted">150,088</text><line x1="64" y1="209.0" x2="928" y2="209.0" stroke="#e2e8f0"/><text x="54" y="213.0" text-anchor="end" class="muted">151,434</text><line x1="64" y1="140.5" x2="928" y2="140.5" stroke="#e2e8f0"/><text x="54" y="144.5" text-anchor="end" class="muted">152,780</text><line x1="64" y1="72.0" x2="928" y2="72.0" stroke="#e2e8f0"/><text x="54" y="76.0" text-anchor="end" class="muted">154,125</text><text x="64.0" y="380" text-anchor="middle" class="muted">2026-08-17</text><text x="514.8" y="380" text-anchor="middle" class="muted">2026-08-29</text><text x="928.0" y="380" text-anchor="middle" class="muted">2026-09-09</text><polyline fill="none" stroke="#2563eb" stroke-width="3" stroke-linejoin="round" stroke-linecap="round" points="64.0,346.0 101.6,341.0 139.1,321.4 176.7,306.3 214.3,289.3 251.8,273.8 289.4,259.5 327.0,247.5 364.5,233.5 402.1,219.7 439.7,196.0 477.2,181.6 514.8,175.3 552.3,165.8 589.9,158.0 627.5,151.3 665.0,142.9 702.6,135.8 740.2,126.4 777.7,116.1 815.3,102.2 852.9,92.8 890.4,82.5 928.0,72.0"/><rect x="64" y="48" width="10" height="10" fill="#2563eb" rx="2"/><text x="80" y="58" class="muted">文章</text>
</svg>