<svg xmlns="http://www.w3.org/2000/svg" width="960" height="400" viewBox="0 0 960 400" role="img">
<style>text{font-family:-apple-system,BlinkMacSystemFont,'Segoe UI',sans-serif;fill:#334155}.muted{fill:#64748b;font-size:12px}.value{fill:#0f172a;font-size:28px;font-weight:700}.title{fill:#0f172a;font-size:16px;font-weight:700}</style>
<rect width="100%" height="100%" fill="#ffffff"/>
<text x="64" y="36" class="title">已存档文章总量变化</text><line x1="64" y1="346.0" x2="928" y2="346.0" stroke="#e2e8f0"/><text x="54" y="350.0" text-anchor="end" class="muted">148,743</text><line x1="64" y1="277.5" x2="928" y2="277.5" stroke="#e2e8f0"/><text x="54" y="281.5" text-anchor="end" class="muted">151,261</text><line x1="64" y1="209.0" x2="928" y2="209.0" stroke="#e2e8f0"/><text x="54" y="213.0" text-anchor="end" class="muted">153,780</text><line x1="64" y1="140.5" x2="928" y2="140.5" stroke="#e2e8f0"/><text x="54" y="144.5" text-anchor="end" class="muted">156,298</text><line x1="64" y1="72.0" x2="928" y2="72.0" stroke="#e2e8f0"/><text x="54" y="76.0" text-anchor="end" class="muted">158,816</text><text x="64.0" y="380" text-anchor="middle" class="muted">2026-08-17</text><text x="496.0" y="380" text-anchor="middle" class="muted">2026-09-08</text><text x="928.0" y="380" text-anchor="middle" class="muted">2026-09-30</text><polyline fill="none" stroke="#2563eb" stroke-width="3" stroke-linejoin="round" stroke-linecap="round" points="64.0,346.0 83.6,343.3 103.3,332.9 122.9,324.8 142.5,315.7 162.2,307.4 181.8,299.8 201.5,293.4 221.1,285.9 240.7,278.5 260.4,265.9 280.0,258.1 299.6,254.8 319.3,249.7 338.9,245.5 358.5,242.0 378.2,237.5 397.8,233.7 417.5,228.7 437.1,223.2 456.7,215.7 476.4,210.7 496.0,205.2 515.6,199.6 535.3,193.7 554.9,188.9 574.5,183.6 594.2,176.4 613.8,171.2 633.5,166.2 653.1,161.1 672.7,156.8 692.4,151.1 712.0,145.2 731.6,141.7 751.3,136.1 770.9,130.4 790.5,122.7 810.2,115.5 829.8,109.9 849.5,104.0 869.1,96.8 888.7,89.6 908.4,82.1 928.0,72.0"/><rect x="64" y="48" width="10" height="10" fill="#2563eb" rx="2"/><text x="80" y="58" class="muted">文章</text>
</svg>