<svg xmlns="http://www.w3.org/2000/svg" width="960" height="400" viewBox="0 0 960 400" role="img">
<style>text{font-family:-apple-system,BlinkMacSystemFont,'Segoe UI',sans-serif;fill:#334155}.muted{fill:#64748b;font-size:12px}.value{fill:#0f172a;font-size:28px;font-weight:700}.title{fill:#0f172a;font-size:16px;font-weight:700}</style>
<rect width="100%" height="100%" fill="#ffffff"/>
<text x="64" y="36" class="title">已存档文章总量变化</text><line x1="64" y1="346.0" x2="928" y2="346.0" stroke="#e2e8f0"/><text x="54" y="350.0" text-anchor="end" class="muted">148,743</text><line x1="64" y1="277.5" x2="928" y2="277.5" stroke="#e2e8f0"/><text x="54" y="281.5" text-anchor="end" class="muted">150,143</text><line x1="64" y1="209.0" x2="928" y2="209.0" stroke="#e2e8f0"/><text x="54" y="213.0" text-anchor="end" class="muted">151,542</text><line x1="64" y1="140.5" x2="928" y2="140.5" stroke="#e2e8f0"/><text x="54" y="144.5" text-anchor="end" class="muted">152,942</text><line x1="64" y1="72.0" x2="928" y2="72.0" stroke="#e2e8f0"/><text x="54" y="76.0" text-anchor="end" class="muted">154,342</text><text x="64.0" y="380" text-anchor="middle" class="muted">2026-08-17</text><text x="496.0" y="380" text-anchor="middle" class="muted">2026-08-29</text><text x="928.0" y="380" text-anchor="middle" class="muted">2026-09-10</text><polyline fill="none" stroke="#2563eb" stroke-width="3" stroke-linejoin="round" stroke-linecap="round" points="64.0,346.0 100.0,341.2 136.0,322.4 172.0,307.9 208.0,291.5 244.0,276.6 280.0,262.9 316.0,251.3 352.0,237.9 388.0,224.6 424.0,201.8 460.0,187.9 496.0,182.0 532.0,172.8 568.0,165.3 604.0,158.9 640.0,150.7 676.0,144.0 712.0,134.9 748.0,125.0 784.0,111.6 820.0,102.6 856.0,92.7 892.0,82.6 928.0,72.0"/><rect x="64" y="48" width="10" height="10" fill="#2563eb" rx="2"/><text x="80" y="58" class="muted">文章</text>
</svg>