<svg xmlns="http://www.w3.org/2000/svg" width="960" height="400" viewBox="0 0 960 400" role="img">
<style>text{font-family:-apple-system,BlinkMacSystemFont,'Segoe UI',sans-serif;fill:#334155}.muted{fill:#64748b;font-size:12px}.value{fill:#0f172a;font-size:28px;font-weight:700}.title{fill:#0f172a;font-size:16px;font-weight:700}</style>
<rect width="100%" height="100%" fill="#ffffff"/>
<text x="64" y="36" class="title">已存档文章总量变化</text><line x1="64" y1="346.0" x2="928" y2="346.0" stroke="#e2e8f0"/><text x="54" y="350.0" text-anchor="end" class="muted">148,743</text><line x1="64" y1="277.5" x2="928" y2="277.5" stroke="#e2e8f0"/><text x="54" y="281.5" text-anchor="end" class="muted">149,821</text><line x1="64" y1="209.0" x2="928" y2="209.0" stroke="#e2e8f0"/><text x="54" y="213.0" text-anchor="end" class="muted">150,900</text><line x1="64" y1="140.5" x2="928" y2="140.5" stroke="#e2e8f0"/><text x="54" y="144.5" text-anchor="end" class="muted">151,978</text><line x1="64" y1="72.0" x2="928" y2="72.0" stroke="#e2e8f0"/><text x="54" y="76.0" text-anchor="end" class="muted">153,056</text><text x="64.0" y="380" text-anchor="middle" class="muted">2026-08-17</text><text x="496.0" y="380" text-anchor="middle" class="muted">2026-08-26</text><text x="928.0" y="380" text-anchor="middle" class="muted">2026-09-04</text><polyline fill="none" stroke="#2563eb" stroke-width="3" stroke-linejoin="round" stroke-linecap="round" points="64.0,346.0 112.0,339.8 160.0,315.3 208.0,296.5 256.0,275.2 304.0,255.9 352.0,238.1 400.0,223.1 448.0,205.7 496.0,188.4 544.0,158.8 592.0,140.8 640.0,133.1 688.0,121.2 736.0,111.4 784.0,103.1 832.0,92.5 880.0,83.8 928.0,72.0"/><rect x="64" y="48" width="10" height="10" fill="#2563eb" rx="2"/><text x="80" y="58" class="muted">文章</text>
</svg>