<svg xmlns="http://www.w3.org/2000/svg" width="960" height="400" viewBox="0 0 960 400" role="img">
<style>text{font-family:-apple-system,BlinkMacSystemFont,'Segoe UI',sans-serif;fill:#334155}.muted{fill:#64748b;font-size:12px}.value{fill:#0f172a;font-size:28px;font-weight:700}.title{fill:#0f172a;font-size:16px;font-weight:700}</style>
<rect width="100%" height="100%" fill="#ffffff"/>
<text x="64" y="36" class="title">每日新增存档数</text><line x1="64" y1="346.0" x2="928" y2="346.0" stroke="#e2e8f0"/><text x="54" y="350.0" text-anchor="end" class="muted">0</text><line x1="64" y1="277.5" x2="928" y2="277.5" stroke="#e2e8f0"/><text x="54" y="281.5" text-anchor="end" class="muted">116</text><line x1="64" y1="209.0" x2="928" y2="209.0" stroke="#e2e8f0"/><text x="54" y="213.0" text-anchor="end" class="muted">232</text><line x1="64" y1="140.5" x2="928" y2="140.5" stroke="#e2e8f0"/><text x="54" y="144.5" text-anchor="end" class="muted">349</text><line x1="64" y1="72.0" x2="928" y2="72.0" stroke="#e2e8f0"/><text x="54" y="76.0" text-anchor="end" class="muted">465</text><text x="64.0" y="380" text-anchor="middle" class="muted">2026-08-18</text><text x="510.9" y="380" text-anchor="middle" class="muted">2026-09-02</text><text x="928.0" y="380" text-anchor="middle" class="muted">2026-09-16</text><polyline fill="none" stroke="#2563eb" stroke-width="3" stroke-linejoin="round" stroke-linecap="round" points="64.0,288.3 93.8,119.1 123.6,171.6 153.4,148.6 183.2,166.3 213.0,181.0 242.8,206.9 272.6,184.5 302.3,185.7 332.1,72.0 361.9,178.7 391.7,274.1 421.5,235.8 451.3,255.3 481.1,268.8 510.9,248.2 540.7,264.7 570.5,237.0 600.3,227.0 630.1,184.5 659.9,237.6 689.7,226.4 719.4,224.6 749.2,218.1 779.0,242.9 808.8,229.3 838.6,190.4 868.4,234.0 898.2,237.6 928.0,235.2"/><rect x="64" y="48" width="10" height="10" fill="#2563eb" rx="2"/><text x="80" y="58" class="muted">文章</text><polyline fill="none" stroke="#f97316" stroke-width="3" stroke-linejoin="round" stroke-linecap="round" points="64.0,328.9 93.8,271.8 123.6,280.0 153.4,272.3 183.2,287.1 213.0,290.6 242.8,305.3 272.6,293.0 302.3,283.5 332.1,236.4 361.9,289.4 391.7,307.7 421.5,317.1 451.3,323.0 481.1,322.4 510.9,333.0 540.7,325.4 570.5,305.9 600.3,281.8 630.1,270.0 659.9,305.9 689.7,307.1 719.4,303.6 749.2,307.7 779.0,270.0 808.8,346.0 838.6,338.3 868.4,301.2 898.2,303.6 928.0,303.0"/><rect x="214" y="48" width="10" height="10" fill="#f97316" rx="2"/><text x="230" y="58" class="muted">剪贴板</text>
</svg>