<svg xmlns="http://www.w3.org/2000/svg" width="960" height="400" viewBox="0 0 960 400" role="img">
<style>text{font-family:-apple-system,BlinkMacSystemFont,'Segoe UI',sans-serif;fill:#334155}.muted{fill:#64748b;font-size:12px}.value{fill:#0f172a;font-size:28px;font-weight:700}.title{fill:#0f172a;font-size:16px;font-weight:700}</style>
<rect width="100%" height="100%" fill="#ffffff"/>
<text x="64" y="36" class="title">每日新增存档数</text><line x1="64" y1="346.0" x2="928" y2="346.0" stroke="#e2e8f0"/><text x="54" y="350.0" text-anchor="end" class="muted">22</text><line x1="64" y1="277.5" x2="928" y2="277.5" stroke="#e2e8f0"/><text x="54" y="281.5" text-anchor="end" class="muted">133</text><line x1="64" y1="209.0" x2="928" y2="209.0" stroke="#e2e8f0"/><text x="54" y="213.0" text-anchor="end" class="muted">244</text><line x1="64" y1="140.5" x2="928" y2="140.5" stroke="#e2e8f0"/><text x="54" y="144.5" text-anchor="end" class="muted">354</text><line x1="64" y1="72.0" x2="928" y2="72.0" stroke="#e2e8f0"/><text x="54" y="76.0" text-anchor="end" class="muted">465</text><text x="64.0" y="380" text-anchor="middle" class="muted">2026-08-18</text><text x="496.0" y="380" text-anchor="middle" class="muted">2026-08-27</text><text x="928.0" y="380" text-anchor="middle" class="muted">2026-09-05</text><polyline fill="none" stroke="#2563eb" stroke-width="3" stroke-linejoin="round" stroke-linecap="round" points="64.0,299.0 112.0,121.5 160.0,176.5 208.0,152.4 256.0,171.0 304.0,186.4 352.0,213.6 400.0,190.1 448.0,191.4 496.0,72.0 544.0,184.0 592.0,284.1 640.0,243.9 688.0,264.4 736.0,278.6 784.0,256.9 832.0,274.3 880.0,245.2 928.0,234.7"/><rect x="64" y="48" width="10" height="10" fill="#2563eb" rx="2"/><text x="80" y="58" class="muted">文章</text><polyline fill="none" stroke="#f97316" stroke-width="3" stroke-linejoin="round" stroke-linecap="round" points="64.0,341.7 112.0,281.7 160.0,290.3 208.0,282.3 256.0,297.8 304.0,301.5 352.0,316.9 400.0,303.9 448.0,294.0 496.0,244.6 544.0,300.2 592.0,319.4 640.0,329.3 688.0,335.5 736.0,334.9 784.0,346.0 832.0,338.0 880.0,317.5 928.0,292.2"/><rect x="214" y="48" width="10" height="10" fill="#f97316" rx="2"/><text x="230" y="58" class="muted">剪贴板</text>
</svg>