<svg xmlns="http://www.w3.org/2000/svg" width="960" height="400" viewBox="0 0 960 400" role="img">
<style>text{font-family:-apple-system,BlinkMacSystemFont,'Segoe UI',sans-serif;fill:#334155}.muted{fill:#64748b;font-size:12px}.value{fill:#0f172a;font-size:28px;font-weight:700}.title{fill:#0f172a;font-size:16px;font-weight:700}</style>
<rect width="100%" height="100%" fill="#ffffff"/>
<text x="64" y="36" class="title">每日新增存档数</text><line x1="64" y1="346.0" x2="928" y2="346.0" stroke="#e2e8f0"/><text x="54" y="350.0" text-anchor="end" class="muted">22</text><line x1="64" y1="277.5" x2="928" y2="277.5" stroke="#e2e8f0"/><text x="54" y="281.5" text-anchor="end" class="muted">133</text><line x1="64" y1="209.0" x2="928" y2="209.0" stroke="#e2e8f0"/><text x="54" y="213.0" text-anchor="end" class="muted">244</text><line x1="64" y1="140.5" x2="928" y2="140.5" stroke="#e2e8f0"/><text x="54" y="144.5" text-anchor="end" class="muted">354</text><line x1="64" y1="72.0" x2="928" y2="72.0" stroke="#e2e8f0"/><text x="54" y="76.0" text-anchor="end" class="muted">465</text><text x="64.0" y="380" text-anchor="middle" class="muted">2026-08-18</text><text x="521.4" y="380" text-anchor="middle" class="muted">2026-08-27</text><text x="928.0" y="380" text-anchor="middle" class="muted">2026-09-04</text><polyline fill="none" stroke="#2563eb" stroke-width="3" stroke-linejoin="round" stroke-linecap="round" points="64.0,299.0 114.8,121.5 165.6,176.5 216.5,152.4 267.3,171.0 318.1,186.4 368.9,213.6 419.8,190.1 470.6,191.4 521.4,72.0 572.2,184.0 623.1,284.1 673.9,243.9 724.7,264.4 775.5,278.6 826.4,256.9 877.2,274.3 928.0,245.2"/><rect x="64" y="48" width="10" height="10" fill="#2563eb" rx="2"/><text x="80" y="58" class="muted">文章</text><polyline fill="none" stroke="#f97316" stroke-width="3" stroke-linejoin="round" stroke-linecap="round" points="64.0,341.7 114.8,281.7 165.6,290.3 216.5,282.3 267.3,297.8 318.1,301.5 368.9,316.9 419.8,303.9 470.6,294.0 521.4,244.6 572.2,300.2 623.1,319.4 673.9,329.3 724.7,335.5 775.5,334.9 826.4,346.0 877.2,338.0 928.0,317.5"/><rect x="214" y="48" width="10" height="10" fill="#f97316" rx="2"/><text x="230" y="58" class="muted">剪贴板</text>
</svg>