<svg xmlns="http://www.w3.org/2000/svg" width="960" height="400" viewBox="0 0 960 400" role="img">
<style>text{font-family:-apple-system,BlinkMacSystemFont,'Segoe UI',sans-serif;fill:#334155}.muted{fill:#64748b;font-size:12px}.value{fill:#0f172a;font-size:28px;font-weight:700}.title{fill:#0f172a;font-size:16px;font-weight:700}</style>
<rect width="100%" height="100%" fill="#ffffff"/>
<text x="64" y="36" class="title">每日新增存档数</text><line x1="64" y1="346.0" x2="928" y2="346.0" stroke="#e2e8f0"/><text x="54" y="350.0" text-anchor="end" class="muted">0</text><line x1="64" y1="277.5" x2="928" y2="277.5" stroke="#e2e8f0"/><text x="54" y="281.5" text-anchor="end" class="muted">93</text><line x1="64" y1="209.0" x2="928" y2="209.0" stroke="#e2e8f0"/><text x="54" y="213.0" text-anchor="end" class="muted">186</text><line x1="64" y1="140.5" x2="928" y2="140.5" stroke="#e2e8f0"/><text x="54" y="144.5" text-anchor="end" class="muted">280</text><line x1="64" y1="72.0" x2="928" y2="72.0" stroke="#e2e8f0"/><text x="54" y="76.0" text-anchor="end" class="muted">373</text><text x="64.0" y="380" text-anchor="middle" class="muted">2026-09-10</text><text x="496.0" y="380" text-anchor="middle" class="muted">2026-09-24</text><text x="928.0" y="380" text-anchor="middle" class="muted">2026-10-09</text><polyline fill="none" stroke="#2563eb" stroke-width="3" stroke-linejoin="round" stroke-linecap="round" points="64.0,186.6 94.9,217.4 125.7,200.6 156.6,152.1 187.4,206.4 218.3,210.8 249.1,207.9 280.0,231.4 310.9,191.7 341.7,185.9 372.6,252.7 403.4,194.7 434.3,191.0 465.1,137.4 496.0,152.8 526.9,195.4 557.7,185.1 588.6,152.1 619.4,150.6 650.3,145.5 681.1,72.0 712.0,113.9 742.9,171.9 773.7,189.5 804.6,138.8 835.4,105.8 866.3,116.1 897.1,175.6 928.0,169.0"/><rect x="64" y="48" width="10" height="10" fill="#2563eb" rx="2"/><text x="80" y="58" class="muted">文章</text><polyline fill="none" stroke="#f97316" stroke-width="3" stroke-linejoin="round" stroke-linecap="round" points="64.0,298.3 94.9,251.2 125.7,346.0 156.6,336.5 187.4,290.2 218.3,293.1 249.1,292.4 280.0,285.0 310.9,277.7 341.7,272.5 372.6,324.0 403.4,301.9 434.3,316.6 465.1,293.8 496.0,280.6 526.9,301.9 557.7,301.2 588.6,266.7 619.4,276.2 650.3,297.5 681.1,293.1 712.0,299.7 742.9,290.2 773.7,265.9 804.6,235.1 835.4,216.0 866.3,259.3 897.1,262.3 928.0,281.4"/><rect x="214" y="48" width="10" height="10" fill="#f97316" rx="2"/><text x="230" y="58" class="muted">剪贴板</text>
</svg>