<svg xmlns="http://www.w3.org/2000/svg" width="960" height="400" viewBox="0 0 960 400" role="img">
<style>text{font-family:-apple-system,BlinkMacSystemFont,'Segoe UI',sans-serif;fill:#334155}.muted{fill:#64748b;font-size:12px}.value{fill:#0f172a;font-size:28px;font-weight:700}.title{fill:#0f172a;font-size:16px;font-weight:700}</style>
<rect width="100%" height="100%" fill="#ffffff"/>
<text x="64" y="36" class="title">每日新增存档数</text><line x1="64" y1="346.0" x2="928" y2="346.0" stroke="#e2e8f0"/><text x="54" y="350.0" text-anchor="end" class="muted">0</text><line x1="64" y1="277.5" x2="928" y2="277.5" stroke="#e2e8f0"/><text x="54" y="281.5" text-anchor="end" class="muted">71</text><line x1="64" y1="209.0" x2="928" y2="209.0" stroke="#e2e8f0"/><text x="54" y="213.0" text-anchor="end" class="muted">142</text><line x1="64" y1="140.5" x2="928" y2="140.5" stroke="#e2e8f0"/><text x="54" y="144.5" text-anchor="end" class="muted">213</text><line x1="64" y1="72.0" x2="928" y2="72.0" stroke="#e2e8f0"/><text x="54" y="76.0" text-anchor="end" class="muted">284</text><text x="64.0" y="380" text-anchor="middle" class="muted">2026-08-31</text><text x="510.9" y="380" text-anchor="middle" class="muted">2026-09-15</text><text x="928.0" y="380" text-anchor="middle" class="muted">2026-09-29</text><polyline fill="none" stroke="#2563eb" stroke-width="3" stroke-linejoin="round" stroke-linecap="round" points="64.0,197.4 93.8,219.6 123.6,185.8 153.4,212.9 183.2,167.5 213.0,151.1 242.8,81.6 272.6,168.5 302.3,150.1 332.1,147.3 361.9,136.6 391.7,177.2 421.5,155.0 451.3,91.3 481.1,162.7 510.9,168.5 540.7,164.6 570.5,195.5 600.3,143.4 630.1,135.7 659.9,223.5 689.7,147.3 719.4,142.4 749.2,72.0 779.0,92.3 808.8,148.2 838.6,134.7 868.4,91.3 898.2,89.4 928.0,82.6"/><rect x="64" y="48" width="10" height="10" fill="#2563eb" rx="2"/><text x="80" y="58" class="muted">文章</text><polyline fill="none" stroke="#f97316" stroke-width="3" stroke-linejoin="round" stroke-linecap="round" points="64.0,308.4 93.8,307.4 123.6,324.8 153.4,312.2 183.2,280.4 213.0,240.8 242.8,221.5 272.6,280.4 302.3,282.3 332.1,276.5 361.9,283.3 391.7,221.5 421.5,346.0 451.3,333.5 481.1,272.7 510.9,276.5 540.7,275.6 570.5,265.9 600.3,256.3 630.1,249.5 659.9,317.1 689.7,288.1 719.4,307.4 749.2,277.5 779.0,260.1 808.8,288.1 838.6,287.1 868.4,241.8 898.2,254.3 928.0,282.3"/><rect x="214" y="48" width="10" height="10" fill="#f97316" rx="2"/><text x="230" y="58" class="muted">剪贴板</text>
</svg>