<svg xmlns="http://www.w3.org/2000/svg" width="960" height="400" viewBox="0 0 960 400" role="img">
<style>text{font-family:-apple-system,BlinkMacSystemFont,'Segoe UI',sans-serif;fill:#334155}.muted{fill:#64748b;font-size:12px}.value{fill:#0f172a;font-size:28px;font-weight:700}.title{fill:#0f172a;font-size:16px;font-weight:700}</style>
<rect width="100%" height="100%" fill="#ffffff"/>
<text x="64" y="36" class="title">已存档剪贴板总量变化</text><line x1="64" y1="346.0" x2="928" y2="346.0" stroke="#e2e8f0"/><text x="54" y="350.0" text-anchor="end" class="muted">66,915</text><line x1="64" y1="277.5" x2="928" y2="277.5" stroke="#e2e8f0"/><text x="54" y="281.5" text-anchor="end" class="muted">67,540</text><line x1="64" y1="209.0" x2="928" y2="209.0" stroke="#e2e8f0"/><text x="54" y="213.0" text-anchor="end" class="muted">68,164</text><line x1="64" y1="140.5" x2="928" y2="140.5" stroke="#e2e8f0"/><text x="54" y="144.5" text-anchor="end" class="muted">68,789</text><line x1="64" y1="72.0" x2="928" y2="72.0" stroke="#e2e8f0"/><text x="54" y="76.0" text-anchor="end" class="muted">69,414</text><text x="64.0" y="380" text-anchor="middle" class="muted">2026-08-17</text><text x="496.0" y="380" text-anchor="middle" class="muted">2026-09-02</text><text x="928.0" y="380" text-anchor="middle" class="muted">2026-09-18</text><polyline fill="none" stroke="#2563eb" stroke-width="3" stroke-linejoin="round" stroke-linecap="round" points="64.0,346.0 91.0,342.8 118.0,329.0 145.0,316.7 172.0,303.0 199.0,292.1 226.0,281.7 253.0,274.2 280.0,264.3 307.0,252.7 334.0,232.3 361.0,221.8 388.0,214.6 415.0,209.3 442.0,205.0 469.0,200.6 496.0,198.2 523.0,194.4 550.0,186.9 577.0,175.0 604.0,160.8 631.0,153.4 658.0,146.1 685.0,138.2 712.0,131.1 739.0,117.0 766.0,117.0 793.0,115.5 820.0,107.2 847.0,99.3 874.0,91.3 901.0,82.2 928.0,72.0"/><rect x="64" y="48" width="10" height="10" fill="#2563eb" rx="2"/><text x="80" y="58" class="muted">剪贴板</text>
</svg>