<svg xmlns="http://www.w3.org/2000/svg" width="960" height="400" viewBox="0 0 960 400" role="img">
<style>text{font-family:-apple-system,BlinkMacSystemFont,'Segoe UI',sans-serif;fill:#334155}.muted{fill:#64748b;font-size:12px}.value{fill:#0f172a;font-size:28px;font-weight:700}.title{fill:#0f172a;font-size:16px;font-weight:700}</style>
<rect width="100%" height="100%" fill="#ffffff"/>
<text x="64" y="36" class="title">已存档剪贴板总量变化</text><line x1="64" y1="346.0" x2="928" y2="346.0" stroke="#e2e8f0"/><text x="54" y="350.0" text-anchor="end" class="muted">66,915</text><line x1="64" y1="277.5" x2="928" y2="277.5" stroke="#e2e8f0"/><text x="54" y="281.5" text-anchor="end" class="muted">67,718</text><line x1="64" y1="209.0" x2="928" y2="209.0" stroke="#e2e8f0"/><text x="54" y="213.0" text-anchor="end" class="muted">68,522</text><line x1="64" y1="140.5" x2="928" y2="140.5" stroke="#e2e8f0"/><text x="54" y="144.5" text-anchor="end" class="muted">69,325</text><line x1="64" y1="72.0" x2="928" y2="72.0" stroke="#e2e8f0"/><text x="54" y="76.0" text-anchor="end" class="muted">70,128</text><text x="64.0" y="380" text-anchor="middle" class="muted">2026-08-17</text><text x="496.0" y="380" text-anchor="middle" class="muted">2026-09-07</text><text x="928.0" y="380" text-anchor="middle" class="muted">2026-09-28</text><polyline fill="none" stroke="#2563eb" stroke-width="3" stroke-linejoin="round" stroke-linecap="round" points="64.0,346.0 84.6,343.5 105.1,332.8 125.7,323.2 146.3,312.6 166.9,304.0 187.4,296.0 208.0,290.1 228.6,282.5 249.1,273.4 269.7,257.6 290.3,249.4 310.9,243.8 331.4,239.7 352.0,236.3 372.6,232.9 393.1,231.0 413.7,228.1 434.3,222.3 454.9,213.0 475.4,202.0 496.0,196.2 516.6,190.5 537.1,184.4 557.7,178.9 578.3,167.9 598.9,167.9 619.4,166.7 640.0,160.3 660.6,154.1 681.1,147.9 701.7,140.8 722.3,132.9 742.9,124.4 763.4,121.8 784.0,116.7 804.6,113.3 825.1,107.2 845.7,99.6 866.3,94.5 886.9,89.3 907.4,80.1 928.0,72.0"/><rect x="64" y="48" width="10" height="10" fill="#2563eb" rx="2"/><text x="80" y="58" class="muted">剪贴板</text>
</svg>